<svg viewBox="0 0 519 214" xmlns="http://www.w3.org/2000/svg">
  <path d="M89.629,193.665C44.464,193.176 5.418,155.721 6.765,105.782C8.112,65.39 35.774,27.691 76.656,21.081C102.727,17.164 134.183,24.753 152.177,44.582C156.461,49.6 150.096,55.108 145.812,50.702C129.778,32.709 101.503,26.222 78.002,29.894C41.282,35.646 16.558,70.041 15.211,106.149C14.109,150.212 49.238,184.24 89.875,185.096C112.887,185.341 137.121,175.304 150.341,156.087L150.341,112.024L94.159,112.024C89.14,112.024 89.14,104.068 94.159,104.068L153.523,104.068C157.195,104.068 158.296,106.149 158.296,109.087L158.296,156.088C158.296,158.169 158.051,160.617 156.46,162.208C140.915,182.526 114.966,193.91 89.629,193.665ZM509.461,22.917C515.826,22.917 515.826,30.873 509.461,30.873L441.162,30.873L441.406,187.055C441.406,190.482 438.714,192.074 436.633,192.074C434.553,192.074 432.105,190.482 432.105,187.055L432.105,30.874L364.05,30.874C357.686,30.874 357.686,22.918 364.05,22.918L509.461,22.918L509.461,22.917Z" style="fill: rgb(128,133,187); fill-rule: nonzero;"/>
  <path d="M281.953,15.274L274.415,10.922L190.42,156.372L197.958,160.724L281.953,15.274Z" style="fill: rgb(67,222,164);"/>
  <rect x="188.713" y="144.739" width="167.961" height="8.705" style="fill: rgb(67,222,164);"/>
  <path d="M280.396,190.582L196.387,142.077L192.034,149.617L276.043,198.121L280.396,190.582Z" style="fill: rgb(67,222,164);"/>
  <path d="M353.376,64.166L269.367,15.662L265.015,23.2L349.024,71.704L353.376,64.166Z" style="fill: rgb(67,222,164);"/>
  <path d="M280.419,23.188L276.067,15.649L192.048,64.143L196.4,71.682L280.419,23.188Z" style="fill: rgb(67,222,164);"/>
  <path d="M355.021,156.349L271.042,10.897L263.505,15.249L347.484,160.7L355.021,156.349Z" style="fill: rgb(67,222,164);"/>
  <rect x="195.373" y="58.372" width="8.705" height="97.012" style="fill: rgb(67,222,164);"/>
  <rect x="341.362" y="58.372" width="8.703" height="97.012" style="fill: rgb(67,222,164);"/>
  <path d="M347.648,152.257L343.846,145.672L270.781,187.858L274.583,194.443L347.648,152.257Z" style="fill: rgb(67,222,164);"/>
  <path d="M361.602,158.216C356.568,166.972 345.347,169.961 336.588,164.928C327.831,159.894 324.843,148.671 329.877,139.913C334.909,131.158 346.133,128.167 354.89,133.203C363.7,138.29 366.69,149.458 361.602,158.216" style="fill: rgb(67,222,164); fill-rule: nonzero;"/>
  <path d="M215.509,73.841C210.475,82.599 199.253,85.588 190.496,80.553C181.739,75.52 178.75,64.298 183.784,55.541C188.819,46.783 200.041,43.794 208.798,48.83C217.553,53.915 220.543,65.083 215.509,73.841" style="fill: rgb(67,222,164); fill-rule: nonzero;"/>
  <path d="M183.837,158.216C178.802,149.458 181.791,138.29 190.549,133.203C199.305,128.167 210.474,131.158 215.561,139.913C220.595,148.671 217.607,159.839 208.849,164.928C200.04,169.961 188.869,166.972 183.837,158.216" style="fill: rgb(67,222,164); fill-rule: nonzero;"/>
  <path d="M329.929,73.841C324.895,65.084 327.885,53.915 336.642,48.829C345.397,43.794 356.568,46.783 361.655,55.54C366.69,64.297 363.701,75.465 354.942,80.552C346.185,85.587 334.965,82.599 329.929,73.841" style="fill: rgb(67,222,164); fill-rule: nonzero;"/>
  <path d="M272.719,209.552C262.599,209.552 254.419,201.372 254.419,191.249C254.419,181.132 262.599,172.95 272.719,172.95C282.84,172.95 291.021,181.132 291.021,191.249C291.021,201.318 282.84,209.552 272.719,209.552" style="fill: rgb(67,222,164); fill-rule: nonzero;"/>
  <path d="M272.719,40.805C262.599,40.805 254.419,32.625 254.419,22.505C254.419,12.383 262.599,4.203 272.719,4.203C282.84,4.203 291.021,12.384 291.021,22.505C291.021,32.625 282.84,40.805 272.719,40.805" style="fill: rgb(67,222,164); fill-rule: nonzero;"/>
</svg>
